Coordinates
version=1
nRows=30
nColumns=34
inDegrees=no

Units are S.I. units (second, meters, Newtons, ...)
If the header above contains a line with 'inDegrees', this indicates whether rotational values are in degrees (yes) or radians (no).

endheader
time	pelvis_tilt	pelvis_list	pelvis_rotation	pelvis_tx	pelvis_ty	pelvis_tz	hip_flexion_r	hip_adduction_r	hip_rotation_r	knee_angle_r	ankle_angle_r	subtalar_angle_r	mtp_angle_r	hip_flexion_l	hip_adduction_l	hip_rotation_l	knee_angle_l	ankle_angle_l	subtalar_angle_l	mtp_angle_l	lumbar_extension	lumbar_bending	lumbar_rotation	arm_flex_r	arm_add_r	arm_rot_r	elbow_flex_r	pro_sup_r	arm_flex_l	arm_add_l	arm_rot_l	elbow_flex_l	pro_sup_l
0.37	0.0474223	-0.0808748	-0.0387554	0.342033	0.936264	-0.193337	-0.116146	0.125197	-0.116656	0.0404384	0.276583	0.349679	-0.00380153	0.439889	-0.148749	-0.113248	0.71731	0.161806	-0.043343	-0.00381215	-0.39323	0.228359	0.098362	0.261581	-0.415356	0.0267091	0.755484	2.09483	-0.0467297	-0.168712	-0.181821	0.706416	2.08673
0.38	0.0508231	-0.0796259	-0.0459118	0.351457	0.935987	-0.193065	-0.135056	0.123428	-0.103351	0.0337854	0.279123	0.344048	-0.0037969	0.430129	-0.143219	-0.117896	0.647753	0.162044	-0.0265049	-0.00380748	-0.397034	0.22467	0.0980631	0.271439	-0.415408	0.037944	0.75821	2.09556	-0.0441415	-0.167132	-0.188905	0.705029	2.08986
0.39	0.0540215	-0.0786584	-0.0531417	0.360971	0.935571	-0.192793	-0.153602	0.12163	-0.0900889	0.0277404	0.281795	0.338127	-0.00379228	0.418377	-0.137677	-0.121819	0.574951	0.16235	-0.00840482	-0.00380282	-0.400455	0.220986	0.0974815	0.280396	-0.414951	0.0480296	0.761524	2.0964	-0.0416992	-0.165764	-0.195376	0.703629	2.09252
0.4	0.0569488	-0.0780932	-0.0604765	0.370581	0.93501	-0.192516	-0.171711	0.119927	-0.076945	0.0223584	0.284481	0.332109	-0.00378765	0.405056	-0.132329	-0.124727	0.499839	0.162666	0.0103148	-0.00379815	-0.403439	0.217432	0.0967251	0.288426	-0.414075	0.0570691	0.765355	2.0973	-0.0394077	-0.164639	-0.200995	0.702234	2.09456
0.41	0.0595826	-0.0780392	-0.0679005	0.380288	0.934298	-0.192234	-0.189374	0.118449	-0.064	0.0176652	0.287056	0.326136	-0.00378302	0.390714	-0.1274	-0.126351	0.423748	0.162818	0.0288263	-0.00379348	-0.405994	0.214132	0.0958664	0.295516	-0.412873	0.0651893	0.769622	2.09822	-0.0372451	-0.163788	-0.205553	0.700851	2.09594
0.42	0.0619577	-0.0785724	-0.0753493	0.390088	0.933438	-0.19195	-0.206646	0.117302	-0.0513504	0.0136601	0.289421	0.320304	-0.0037784	0.376007	-0.123104	-0.126526	0.348417	0.162583	0.0462156	-0.00378882	-0.408194	0.211174	0.0949358	0.301664	-0.411432	0.0725137	0.77425	2.09913	-0.0351617	-0.16324	-0.208894	0.699476	2.09671
0.43	0.0641708	-0.0797231	-0.0827149	0.399972	0.932439	-0.191668	-0.223642	0.116552	-0.0391174	0.0103144	0.291528	0.31468	-0.00377378	0.361677	-0.119623	-0.125266	0.275955	0.16179	0.0616136	-0.00378415	-0.41018	0.208588	0.0939191	0.306861	-0.409821	0.0791399	0.779186	2.09996	-0.0330818	-0.16302	-0.210948	0.698101	2.09696
0.44	0.0663685	-0.081465	-0.0898567	0.409924	0.931317	-0.191395	-0.240514	0.116211	-0.0274509	0.00756551	0.293396	0.309332	-0.00376915	0.348497	-0.117079	-0.122819	0.208692	0.160411	0.0743342	-0.00377949	-0.412137	0.206337	0.0927611	0.311087	-0.408088	0.0851237	0.784414	2.10068	-0.0309082	-0.163152	-0.211746	0.696721	2.0968
0.45	0.0687178	-0.0837101	-0.096615	0.41993	0.930094	-0.191135	-0.257426	0.116231	-0.0165276	0.00531356	0.295116	0.304348	-0.00376453	0.337185	-0.115516	-0.119659	0.148947	0.158623	0.0839853	-0.00377482	-0.414267	0.204311	0.0913744	0.314299	-0.406257	0.0904692	0.789955	2.10123	-0.0285314	-0.163655	-0.211414	0.695333	2.09637
0.46	0.0713644	-0.0863147	-0.10283	0.429977	0.928798	-0.190893	-0.274511	0.116509	-0.0065621	0.00343657	0.296839	0.299879	-0.00375991	0.328299	-0.114879	-0.116427	0.0986906	0.156802	0.0905161	-0.00377016	-0.416737	0.202338	0.0896554	0.316431	-0.404325	0.0951272	0.795865	2.10157	-0.0258419	-0.164546	-0.210161	0.693946	2.09579
0.47	0.0743883	-0.0890979	-0.108368	0.440063	0.927454	-0.190671	-0.291823	0.116901	0.00214662	0.00184469	0.298774	0.296213	-0.00375529	0.322116	-0.115016	-0.113795	0.0591763	0.15544	0.0941872	-0.0037655	-0.419631	0.200214	0.0875044	0.317387	-0.402273	0.0990013	0.802222	2.10169	-0.0227486	-0.165835	-0.208252	0.692576	2.09516
0.48	0.07777	-0.0918667	-0.113137	0.4502	0.92608	-0.190469	-0.309285	0.117229	0.00914999	0.000548776	0.301173	0.29385	-0.00375067	0.318529	-0.115683	-0.112311	0.0306281	0.154985	0.0954588	-0.00376084	-0.422908	0.197725	0.084847	0.317056	-0.40007	0.101963	0.809109	2.10158	-0.0191973	-0.167521	-0.205978	0.691252	2.09459
0.49	0.0813755	-0.0944335	-0.11711	0.460413	0.924689	-0.190286	-0.326671	0.117299	0.0137915	-0.000277783	0.304323	0.293555	-0.00374606	0.317024	-0.116583	-0.112252	0.0121492	0.15567	0.0948303	-0.00375618	-0.426399	0.194684	0.0816507	0.315311	-0.397679	0.103876	0.816586	2.10128	-0.0151887	-0.169589	-0.20362	0.690007	2.09413
0.5	0.0850049	-0.096636	-0.120325	0.470742	0.923287	-0.190125	-0.343611	0.116908	0.0151855	-0.00026459	0.308523	0.296347	-0.00374144	0.316804	-0.117405	-0.113538	0.0020361	0.157394	0.0926788	-0.00375153	-0.42984	0.190945	0.0779307	0.312028	-0.395072	0.104622	0.824668	2.10084	-0.0107868	-0.172003	-0.201421	0.688886	2.09383
0.51	0.0884477	-0.0983479	-0.122873	0.481229	0.921878	-0.189988	-0.359641	0.115841	0.0122642	0.00114836	0.314047	0.303399	-0.00373683	0.316993	-0.11787	-0.115758	-0.00174961	0.159696	0.0891564	-0.00374687	-0.43293	0.186414	0.0737434	0.307109	-0.39223	0.104135	0.833304	2.10032	-0.0061113	-0.174708	-0.19956	0.687935	2.09371
0.52	0.0915294	-0.0994776	-0.12488	0.491911	0.920465	-0.18988	-0.374269	0.113883	0.00391547	0.00465055	0.321098	0.315843	-0.00373221	0.316835	-0.117755	-0.118279	-0.00113644	0.161803	0.0841767	-0.00374222	-0.435393	0.181033	0.0691692	0.3005	-0.389149	0.102427	0.842365	2.09979	-0.00131741	-0.177636	-0.198145	0.687192	2.09379
0.53	0.0941471	-0.0999562	-0.126479	0.502812	0.91905	-0.189806	-0.38706	0.11082	-0.0107861	0.0109452	0.329731	0.334486	-0.0037276	0.315839	-0.11689	-0.120415	0.00237179	0.162753	0.0774889	-0.00373757	-0.437036	0.174765	0.0642885	0.292212	-0.385838	0.0995993	0.851647	2.09934	0.00343275	-0.180708	-0.197213	0.686688	2.09403
0.54	0.0962902	-0.0997205	-0.12779	0.513943	0.917636	-0.18977	-0.397741	0.106452	-0.0322763	0.0205897	0.339787	0.359482	-0.00372299	0.313837	-0.115147	-0.121599	0.0078419	0.161553	0.0688147	-0.00373292	-0.437783	0.167564	0.0591575	0.282334	-0.382314	0.095849	0.86088	2.09903	0.00799881	-0.183851	-0.196743	0.686431	2.09439
0.55	0.0980462	-0.098695	-0.128902	0.525298	0.916226	-0.18977	-0.406282	0.100608	-0.0601872	0.0338237	0.350817	0.390031	-0.00371838	0.310951	-0.112414	-0.121522	0.0148935	0.157352	0.0580055	-0.00372827	-0.437692	0.15935	0.0537891	0.271026	-0.37859	0.0914441	0.869752	2.0989	0.0122824	-0.187008	-0.196683	0.686402	2.0948
0.56	0.0995934	-0.0967735	-0.129871	0.536861	0.914867	-0.189809	-0.412955	0.0931547	-0.0931279	0.0504456	0.362042	0.424206	-0.00371378	0.307483	-0.108576	-0.120194	0.0235506	0.149594	0.0451692	-0.00372362	-0.436938	0.149995	0.0481462	0.258497	-0.374658	0.0866881	0.877924	2.09897	0.0162322	-0.190145	-0.196965	0.686554	2.0952
0.57	0.101164	-0.0938176	-0.130718	0.548614	0.913588	-0.189874	-0.418309	0.0840002	-0.128717	0.0698106	0.372388	0.45909	-0.00370917	0.303749	-0.103485	-0.117921	0.0340186	0.138125	0.0307094	-0.00371897	-0.435783	0.139302	0.0421446	0.244977	-0.370479	0.0818709	0.885057	2.09925	0.0198401	-0.19326	-0.19752	0.686806	2.09551
0.58	0.103008	-0.0896528	-0.131447	0.560542	0.912416	-0.189953	-0.42304	0.073068	-0.164044	0.0909897	0.380628	0.49139	-0.00370457	0.299907	-0.0969436	-0.115192	0.0464513	0.123213	0.0152353	-0.00371433	-0.43451	0.127016	0.0356705	0.230685	-0.365976	0.0772169	0.89083	2.0997	0.0231313	-0.19638	-0.198289	0.687045	2.09571
0.59	0.105358	-0.0840467	-0.132057	0.572637	0.911384	-0.190034	-0.427757	0.0602246	-0.196721	0.113144	0.385682	0.518699	-0.00369997	0.295933	-0.0886957	-0.112486	0.0607971	0.10549	-0.000696304	-0.00370968	-0.433379	0.112823	0.0285981	0.215801	-0.361031	0.0728413	0.894964	2.1003	0.026165	-0.199559	-0.199221	0.687141	2.09575
0.6	0.108386	-0.0767372	-0.13253	0.584888	0.910518	-0.190105	-0.43285	0.0452843	-0.225287	0.135719	0.386734	0.539895	-0.00369537	0.291702	-0.078464	-0.110181	0.076829	0.08593	-0.0166632	-0.00370504	-0.432591	0.0963837	0.0208039	0.200456	-0.355496	0.0687356	0.897235	2.10104	0.0290302	-0.202867	-0.200268	0.686956	2.09566
0.61	0.112172	-0.0674735	-0.132811	0.597281	0.909842	-0.190159	-0.438423	0.0280683	-0.249184	0.158518	0.383245	0.554968	-0.00369077	0.287108	-0.0660147	-0.108524	0.0942763	0.0657921	-0.0323498	-0.0037004	-0.43226	0.0773968	0.0121794	0.184715	-0.349208	0.0647827	0.897483	2.10195	0.0318376	-0.206387	-0.201394	0.686381	2.09547
0.62	0.116661	-0.0560747	-0.132799	0.609798	0.909368	-0.190188	-0.444275	0.00848189	-0.268524	0.181698	0.374903	0.564579	-0.00368617	0.282156	-0.0512255	-0.107638	0.112934	0.0465161	-0.0474705	-0.00369576	-0.432397	0.0556565	0.00264669	0.168589	-0.342004	0.0608035	0.895622	2.10306	0.034706	-0.210203	-0.202578	0.685354	2.09523
0.63	0.121654	-0.0424896	-0.132345	0.622413	0.909096	-0.190186	-0.449913	-0.0134125	-0.28376	0.205715	0.361554	0.569534	-0.00368157	0.276998	-0.034138	-0.107524	0.132685	0.0295512	-0.0616969	-0.00369112	-0.432905	0.0311102	-0.00782639	0.152048	-0.333762	0.0566324	0.891643	2.10446	0.0377462	-0.214386	-0.203821	0.683883	2.095
0.64	0.12682	-0.0268346	-0.13127	0.635096	0.909019	-0.190147	-0.454597	-0.0373457	-0.295392	0.231252	0.34314	0.570351	-0.00367697	0.271905	-0.0149855	-0.108074	0.153433	0.0161562	-0.074633	-0.00368648	-0.433591	0.00389816	-0.0192109	0.135046	-0.324437	0.052213	0.885623	2.10628	0.0410464	-0.218983	-0.205153	0.682059	2.09488
0.65	0.131729	-0.00940923	-0.1294	0.647811	0.909118	-0.190066	-0.457405	-0.0628306	-0.303745	0.259122	0.319657	0.566979	-0.00367238	0.267193	0.0058095	-0.109073	0.174992	0.00721217	-0.0858527	-0.00368185	-0.434192	-0.0256355	-0.0314054	0.117563	-0.314097	0.0476984	0.877736	2.10863	0.0446601	-0.224003	-0.206634	0.680056	2.09493
0.66	0.135905	0.0093164	-0.126599	0.660518	0.909368	-0.189937	-0.45732	-0.0891916	-0.308866	0.290175	0.291159	0.558758	-0.00366778	0.263136	0.0276701	-0.110219	0.196996	0.00309468	-0.0949933	-0.00367721	-0.43442	-0.0569637	-0.0442333	0.0996359	-0.302955	0.0435339	0.868251	2.11164	0.0485998	-0.229419	-0.208352	0.678114	2.09526
